<svg id="SvgjsSvg1001" width="288" height="288" xmlns="http://www.w3.org/2000/svg" version="1.1" xmlns:xlink="http://www.w3.org/1999/xlink" xmlns:svgjs="http://svgjs.com/svgjs"><g id="SvgjsG1012" transform="matrix(0.71,0,0,0.71,41.760000000000005,41.760000000000005)" fill="#ea4335"><circle id="SvgjsCircle1013" r="144" cx="144" cy="144"></circle><rect id="SvgjsRect1014" width="164" height="164" x="124" y="124" rx="20" ry="20"></rect></g><defs id="SvgjsDefs1002"></defs><g id="SvgjsG1008" transform="matrix(0.4652,0,0,0.4652,77.0112,77.0112020401001)"><svg xmlns="http://www.w3.org/2000/svg" width="288" height="288" viewBox="0 0 32 32"><path d="M16 25.093c-8.839 0-16-4.796-16-10.719 0-5.916 7.161-10.713 16-10.713s16 4.797 16 10.713c0 5.923-7.161 10.719-16 10.719zM18.448 7.849c-6.713 0-12.161 3.281-12.161 7.328s5.448 7.328 12.161 7.328c6.713 0 11.677-2.245 11.677-7.328 0-5.084-4.959-7.328-11.677-7.328zM24.364 20.26c0.527 0.156 1.037 0.349 1.537 0.579 0.287 0.14 0.547 0.328 0.776 0.552 0.14 0.151 0.26 0.323 0.353 0.511l3.819 6.437h-6.172l-2.885-5.417c-0.265-0.473-0.584-0.911-0.953-1.307-0.188-0.208-0.453-0.333-0.735-0.333h-1.464v7.052l-5.457 0.005v-18.021h10.963c0 0 4.991 0.089 4.991 4.839 0.009 2.693-2.079 4.932-4.772 5.104zM21.995 14.224h-3.307v3.063h3.307c0.86 0.011 1.557-0.699 1.532-1.557 0.047-0.865-0.672-1.568-1.532-1.505z" fill="#0a3ca2" class="color000 svgShape"></path></svg></g></svg>